<?xml version="1.0" standalone="no"?>
<!DOCTYPE svg PUBLIC "-//W3C//DTD SVG 20010904//EN"
 "http://www.w3.org/TR/2001/REC-SVG-20010904/DTD/svg10.dtd">
<svg version="1.0" xmlns="http://www.w3.org/2000/svg"
 width="128.000000pt" height="128.000000pt" viewBox="0 0 128.000000 128.000000"
 preserveAspectRatio="xMidYMid meet">
<metadata>
Created by potrace 1.11, written by Peter Selinger 2001-2013
</metadata>
<g transform="translate(0.000000,128.000000) scale(0.100000,-0.100000)"
fill="#000000" stroke="none">
<path d="M0 640 l0 -640 640 0 640 0 0 640 0 640 -640 0 -640 0 0 -640z m323
553 c18 -21 47 -99 118 -323 56 -179 120 -322 153 -345 40 -28 74 -19 127 36
68 70 110 134 103 156 -4 12 -3 14 3 5 19 -25 124 184 153 303 16 65 19 71 51
82 45 16 104 16 117 1 19 -24 21 -78 5 -181 -8 -56 -16 -122 -19 -147 -5 -68
-23 -233 -36 -340 -18 -155 -10 -239 29 -311 6 -10 -66 -49 -90 -49 -60 1 -77
19 -92 97 -7 36 5 201 36 470 17 158 24 261 12 208 -8 -38 -48 -135 -55 -135
-5 0 -8 -6 -8 -14 0 -7 -10 -26 -22 -42 -13 -16 -21 -29 -20 -29 8 0 -22 -55
-30 -55 -5 0 -6 -5 -3 -10 3 -6 -1 -13 -9 -16 -9 -3 -16 -13 -16 -21 0 -8 -4
-11 -10 -8 -5 3 -10 1 -10 -6 0 -6 -8 -18 -17 -26 -11 -9 -12 -11 -3 -7 10 5
9 1 -4 -14 -10 -12 -23 -19 -28 -16 -4 3 -7 0 -6 -8 2 -7 -3 -12 -10 -10 -8 1
-11 -1 -8 -6 7 -12 -48 -52 -87 -63 -47 -13 -106 7 -147 50 -44 46 -100 153
-130 246 -26 82 -40 102 -40 59 -1 -28 -11 -82 -59 -308 -28 -130 -28 -216 -1
-236 19 -14 18 -15 -23 -27 -55 -16 -99 -16 -122 0 -30 23 -15 112 74 456 79
300 82 317 70 360 -15 60 -77 191 -89 191 -21 0 -9 17 23 33 44 21 100 21 120
0z m585 0 c-15 -2 -42 -2 -60 0 -18 2 -6 4 27 4 33 0 48 -2 33 -4z m-169 -22
c-92 -25 -189 -72 -259 -126 -33 -25 -60 -41 -60 -36 0 6 3 11 8 11 4 0 23 14
42 31 73 65 237 137 310 138 14 0 -5 -8 -41 -18z m12 -463 c-93 -13 -125 -29
-146 -74 -10 -22 -20 -33 -23 -26 -2 7 7 30 21 51 21 32 34 40 74 49 26 5 68
10 93 10 40 0 38 -2 -19 -10z m86 -241 c-51 -86 -131 -138 -209 -136 l-43 1
52 8 c81 12 156 69 199 151 8 17 18 28 21 25 3 -3 -6 -25 -20 -49z m-36 -199
c-43 -97 -99 -194 -107 -185 -3 2 10 30 29 61 19 31 51 94 72 141 21 47 40 83
42 81 3 -2 -14 -46 -36 -98z"/>
</g>
</svg>
